<?xml version="1.0" standalone="no"?>
<!DOCTYPE svg PUBLIC "-//W3C//DTD SVG 20010904//EN"
 "http://www.w3.org/TR/2001/REC-SVG-20010904/DTD/svg10.dtd">
<svg version="1.0" xmlns="http://www.w3.org/2000/svg"
 width="512.000000pt" height="512.000000pt" viewBox="0 0 512.000000 512.000000"
 preserveAspectRatio="xMidYMid meet">
<metadata>
Created by potrace 1.11, written by Peter Selinger 2001-2013
</metadata>
<g transform="translate(0.000000,512.000000) scale(0.100000,-0.100000)"
fill="#000000" stroke="none">
<path d="M2975 5107 c-88 -40 -122 -162 -67 -236 37 -49 69 -66 132 -66 97 0
154 57 155 155 0 62 -16 95 -66 132 -33 25 -115 32 -154 15z"/>
<path d="M2260 4776 c-92 -30 -149 -66 -210 -133 -92 -100 -132 -210 -125
-348 7 -174 112 -332 268 -405 310 -146 659 58 684 399 16 216 -129 428 -337
490 -76 24 -205 22 -280 -3z m196 -306 c104 -35 135 -176 56 -262 -51 -56
-153 -61 -212 -11 -38 31 -49 52 -56 103 -17 118 95 208 212 170z"/>
<path d="M1695 3506 c-113 -50 -126 -202 -24 -279 32 -23 44 -25 157 -26 l92
-1 0 -219 0 -219 -92 -154 c-50 -84 -98 -165 -107 -180 -9 -15 -79 -132 -155
-260 -77 -128 -144 -242 -150 -253 -6 -11 -49 -83 -95 -160 -142 -237 -576
-967 -613 -1031 -91 -156 -88 -352 7 -499 65 -102 169 -178 286 -209 84 -23
3028 -23 3114 -1 228 60 378 267 361 498 -8 104 -30 155 -156 367 -58 96 -109
184 -116 195 -6 11 -80 137 -166 280 -85 143 -248 418 -363 610 -114 193 -216
362 -226 377 -10 15 -19 30 -19 33 0 4 -13 26 -30 50 -16 24 -30 46 -30 49 0
2 -38 68 -85 145 l-85 141 0 219 0 219 109 4 c118 3 141 12 185 71 29 39 29
135 0 173 -50 68 -53 69 -294 69 -240 0 -243 -1 -294 -69 -20 -26 -21 -41 -23
-399 l-3 -372 94 -158 c52 -86 96 -161 98 -165 2 -4 76 -128 164 -277 174
-289 192 -321 224 -375 11 -19 29 -50 40 -67 l20 -33 -160 0 -160 0 0 160 0
160 -160 0 -160 0 0 -160 0 -160 -160 0 -160 0 0 160 0 160 -160 0 -160 0 0
-160 0 -160 -160 0 -160 0 0 160 0 160 -60 0 c-33 0 -60 4 -60 8 0 8 98 178
145 252 13 19 83 136 156 260 l134 225 0 377 c0 366 -1 377 -21 405 -11 15
-35 38 -53 50 -30 20 -43 22 -234 22 -148 0 -210 -3 -232 -13z m225 -2066 l0
-160 160 0 160 0 0 160 0 160 160 0 160 0 0 -160 0 -160 160 0 160 0 0 160 0
160 160 0 160 0 0 -160 0 -160 160 0 159 0 3 155 3 156 91 -153 91 -153 -93
-3 -94 -3 0 -159 0 -160 159 0 160 0 3 48 c3 45 4 46 16 22 6 -14 19 -35 28
-47 16 -23 16 -23 -15 -23 l-31 0 0 -160 0 -160 125 0 125 0 30 -47 c57 -92
48 -179 -25 -238 -35 -29 -42 -30 -146 -33 l-109 -4 0 161 0 161 -160 0 -160
0 0 -160 0 -160 -160 0 -160 0 0 160 0 160 -160 0 -160 0 0 -160 0 -160 -160
0 -160 0 0 160 0 160 -160 0 -160 0 0 -160 0 -160 -160 0 -160 0 0 160 0 160
-160 0 -160 0 0 -160 0 -160 -160 0 -160 0 0 160 0 159 -124 3 -124 3 93 155
c85 143 94 155 124 158 30 3 31 5 31 52 0 52 5 63 83 192 l45 73 96 3 96 3 0
159 0 160 160 0 160 0 0 -160z"/>
<path d="M1600 1120 l0 -160 -160 0 -160 0 0 -160 0 -160 160 0 160 0 0 160 0
160 160 0 160 0 0 -160 0 -160 160 0 160 0 0 160 0 160 160 0 160 0 0 -160 0
-160 160 0 160 0 0 160 0 160 160 0 160 0 0 -160 0 -160 160 0 160 0 0 160 0
160 -160 0 -160 0 0 160 0 160 -160 0 -160 0 0 -160 0 -160 -160 0 -160 0 0
160 0 160 -160 0 -160 0 0 -160 0 -160 -160 0 -160 0 0 160 0 160 -160 0 -160
0 0 -160z"/>
</g>
</svg>
